<svg width="85" height="92" viewBox="0 0 85 92" fill="none" xmlns="http://www.w3.org/2000/svg">
<g filter="url(#filter0_f_0_433)">
<rect x="20.9403" y="45.3235" width="43.2066" height="26.5887" fill="#FBA457" fill-opacity="0.5"/>
</g>
<rect x="20.9403" y="45.3235" width="43.2066" height="26.5887" fill="#FBA457"/>
<path d="M79.9497 75.4445H75.2788L75.7094 74.9316C77.9146 72.3054 78.6003 68.7895 77.5436 65.5271L73.3238 52.4981C72.265 49.2293 69.6445 46.775 66.3136 45.9324L64.2165 45.402C63.3926 44.2453 62.0976 43.4462 60.6132 43.2896L60.6145 38.1004C60.6146 37.4285 60.0702 36.8839 59.3985 36.8837C58.7268 36.8837 58.182 37.428 58.1818 38.0997L58.1805 43.2608H55.7518L52.7432 42.4999C51.9817 42.3071 51.4149 41.6807 51.2993 40.9038L50.6082 36.2617C53.3962 34.0669 55.4616 31.1104 56.0853 27.578H57.0887C57.4712 27.578 57.8394 27.516 58.1846 27.4031L58.1833 32.4035C58.1831 33.0754 58.7276 33.62 59.3993 33.6202C60.071 33.6202 60.6158 33.0759 60.6159 32.4042C60.6166 31.4342 60.62 20.0701 60.62 16.3252C60.6276 7.55664 53.5338 0.455078 44.7637 0.455078H40.3236L40.2715 0.45524C40.2619 0.45524 40.2525 0.456052 40.2427 0.456052C31.5026 0.499382 24.4596 7.5904 24.4671 16.3245C24.4671 20.4094 24.4646 16.2123 24.474 43.2894C22.9896 43.4462 21.6946 44.2451 20.8707 45.4019L18.7736 45.9322C15.4428 46.7748 12.8222 49.2292 11.7634 52.4979L7.54356 65.5269C6.48693 68.7895 7.17258 72.3052 9.3777 74.9313L9.8084 75.4443H5.13753C2.90434 75.4443 1.0874 77.2612 1.0874 79.4944C1.0874 81.7278 2.90418 83.5447 5.13753 83.5447H79.9498C82.183 83.5447 84 81.7278 84 79.4946C83.9998 77.2614 82.183 75.4445 79.9497 75.4445ZM71.0094 53.2473L75.2293 66.2763C76.0261 68.7363 75.5091 71.387 73.8463 73.3672L72.1024 75.4445H69.8614C70.1089 74.7797 70.2397 74.0709 70.2397 73.3442C70.2397 71.9534 69.1083 70.8219 67.7175 70.8219H65.1576V48.3423C65.1576 48.2772 65.1552 48.2126 65.1527 48.148C65.3137 48.2319 69.5524 48.7488 71.0094 53.2473ZM67.7176 73.2546C67.767 73.2546 67.8071 73.2947 67.8071 73.344C67.8071 74.1064 67.5646 74.8352 67.1229 75.4443H17.9643C17.5226 74.8351 17.2801 74.1062 17.2801 73.344C17.2801 73.2945 17.3202 73.2546 17.3696 73.2546H67.7176ZM58.1854 24.0858C58.1645 24.6734 57.6812 25.1452 57.0887 25.1452H56.2764L56.2888 20.2148H57.0905C57.6869 20.2148 58.1727 20.6936 58.1862 21.2867L58.1854 24.0858ZM36.9389 6.28661C36.9389 4.42666 38.4245 2.90849 40.2633 2.88934C40.2835 2.88934 40.3034 2.88788 40.3236 2.88788H44.7637C52.1867 2.88788 58.1938 8.89809 58.1873 16.3239L58.187 17.7822C56.5145 17.7822 53.3396 17.7822 48.3622 17.7822C42.0634 17.7822 36.9391 12.6577 36.9391 6.35899L36.9389 6.28661ZM37.315 14.7106C39.8471 18.0517 43.8562 20.2148 48.362 20.2148H53.8558L53.8428 25.4018C53.8428 29.5298 51.4256 32.6668 48.7004 34.6702C48.6825 34.6802 45.4339 37.1523 42.5434 37.2328C39.8734 37.1583 36.5271 34.75 36.3893 34.6716C33.6629 32.6676 31.2441 29.5287 31.2441 25.3961C31.2165 19.3096 31.2433 25.2023 31.2145 18.8662C31.2118 18.244 31.7144 17.7389 32.3369 17.7389C34.4997 17.739 36.3792 16.5081 37.315 14.7106ZM49.7335 43.2608H35.3538C35.7875 42.6881 36.0835 42.0064 36.1944 41.2621L36.7147 37.7675C38.9213 39.026 41.0688 39.6348 42.5176 39.6658C42.5264 39.6659 42.535 39.6661 42.5438 39.6661C42.5525 39.6661 42.5611 39.6659 42.5699 39.6658C44.0188 39.6348 46.1663 39.0262 48.3729 37.7675L48.8932 41.2621C49.0037 42.0064 49.2997 42.6881 49.7335 43.2608ZM27.9987 27.578H29.0024C29.6256 31.1069 31.6874 34.0639 34.4792 36.2617L33.788 40.9038C33.6725 41.6807 33.1056 42.3071 32.3444 42.4997L29.3354 43.2607H26.9067L26.9026 27.4031C27.248 27.5162 27.616 27.578 27.9987 27.578ZM26.9018 24.0858L26.9012 21.2867C26.9146 20.6936 27.4005 20.2148 27.9969 20.2148H28.7881L28.8104 25.1452H27.9987C27.406 25.1454 26.9228 24.6734 26.9018 24.0858ZM34.9727 3.99629C34.673 4.70011 34.5063 5.47421 34.5063 6.28644C34.5227 6.45311 34.3916 8.76226 35.5139 11.537V12.1293C35.5139 13.881 34.0887 15.3062 32.337 15.3062C30.7376 15.3062 29.4038 16.3541 28.9503 17.782H27.9969C27.6141 17.782 27.2457 17.844 26.9004 17.9573L26.8999 16.3231C26.895 10.7512 30.2606 6.04497 34.9727 3.99629ZM9.85806 66.2765L14.0779 53.2475C15.5343 48.7509 19.7706 48.2336 19.9346 48.1482C19.9322 48.2128 19.9298 48.2772 19.9298 48.3425L19.9296 61.2377C19.9296 61.9096 20.4742 61.2377 21.1459 61.2377C21.8178 61.2377 22.3622 61.9096 22.3622 61.2377L22.3624 48.3425C22.3624 46.8819 23.5506 45.6936 25.0112 45.6936H60.0763C61.5369 45.6936 62.7251 46.8819 62.7251 48.3425V70.8219H22.3622V61.2377C22.3622 60.5659 21.8176 60.0214 21.1459 60.0214C20.4741 60.0214 19.9296 60.5659 19.9296 61.2377V70.8219H17.3697C15.9789 70.8219 14.8475 71.9534 14.8475 73.3442C14.8475 74.0709 14.9785 74.7799 15.2258 75.4445H12.985L11.2409 73.367C9.57828 71.3872 9.06125 68.7363 9.85806 66.2765ZM79.9497 81.1119H5.13753C4.24562 81.1119 3.52021 80.3863 3.52021 79.4946C3.52021 78.6027 4.24578 77.8773 5.13753 77.8773H79.9498C80.8418 77.8773 81.5672 78.6028 81.5672 79.4946C81.5672 80.3863 80.8416 81.1119 79.9497 81.1119Z" fill="#222222"/>
<ellipse cx="42.5436" cy="58.2854" rx="3.32359" ry="3.32358" fill="#F6FAFD"/>
<path d="M42.5436 63.9617C45.6148 63.9617 48.1133 61.463 48.1133 58.3919C48.1133 55.3208 45.6148 52.822 42.5436 52.822C39.4723 52.822 36.9738 55.3207 36.9738 58.3917C36.9738 61.4628 39.4723 63.9617 42.5436 63.9617ZM42.5436 55.2548C44.2734 55.2548 45.6807 56.6619 45.6807 58.3919C45.6807 60.1218 44.2734 61.529 42.5436 61.529C40.8138 61.529 39.4065 60.1218 39.4065 58.3919C39.4065 56.6619 40.8138 55.2548 42.5436 55.2548Z" fill="#222222"/>
<defs>
<filter id="filter0_f_0_433" x="0.940308" y="25.3235" width="83.2066" height="66.5887" filterUnits="userSpaceOnUse" color-interpolation-filters="sRGB">
<feFlood flood-opacity="0" result="BackgroundImageFix"/>
<feBlend mode="normal" in="SourceGraphic" in2="BackgroundImageFix" result="shape"/>
<feGaussianBlur stdDeviation="10" result="effect1_foregroundBlur_0_433"/>
</filter>
</defs>
</svg>
