<svg width="102" height="90" viewBox="0 0 102 90" fill="none" xmlns="http://www.w3.org/2000/svg">
<path d="M69.1667 67.0889L65.6435 65.0036C64.5695 64.369 63.3409 64.034 62.0892 64.0333H56.7869C55.7015 64.0313 54.6207 64.1694 53.5711 64.443L37.5952 68.6798C35.8485 69.1563 34.4455 70.4415 33.8336 72.1265L19.7814 64.6159C18.6419 63.9752 17.3079 63.7577 16.0205 64.0019C15.5348 64.0867 15.064 64.2395 14.6216 64.4557C13.6226 64.9282 12.7938 65.6916 12.2453 66.6425C11.7658 67.4706 11.5138 68.4082 11.5138 69.3618C11.499 71.3091 12.5432 73.1135 14.2481 74.0891L39.4331 88.9763C40.5273 89.6456 41.7877 90 43.0745 90H62.5654C63.4361 90.0006 64.2987 89.8378 65.1079 89.5215L69.1667 87.938V90H83V62.6666H69.1667V67.0889ZM64.0913 86.9797C63.607 87.1685 63.0903 87.266 62.5695 87.2666H43.0745C42.295 87.266 41.5311 87.0491 40.8705 86.6407L15.651 71.7361C14.7938 71.247 14.269 70.3408 14.2758 69.3632C14.2778 68.884 14.4054 68.4129 14.6466 67.9965C14.9222 67.5247 15.3369 67.1463 15.8347 66.9128C16.0542 66.8073 16.2866 66.7326 16.5264 66.6912C16.7013 66.6592 16.879 66.6425 17.0566 66.6425C17.5321 66.6412 17.9995 66.764 18.4122 66.9975L33.6498 75.1321C33.6674 75.2155 33.6674 75.2976 33.6897 75.381C34.3449 77.7667 36.5354 79.4236 39.038 79.4263C39.808 79.3569 40.5706 79.2221 41.3176 79.0246L55.69 75.2249L54.9767 72.5843L40.6509 76.3673C40.0201 76.5108 39.2061 76.675 39.038 76.689C37.7884 76.691 36.6928 75.8662 36.3638 74.6757C36.3193 74.5102 36.2929 74.3407 36.2835 74.1699C36.2835 74.1699 36.2726 73.8389 36.2835 73.7228C36.3888 72.5796 37.1994 71.62 38.3186 71.3124L54.2877 67.0916C55.103 66.8761 55.9433 66.7666 56.7869 66.7666H62.0892C62.8403 66.7666 63.5773 66.9682 64.221 67.3492L69.1667 70.2747V84.9978L64.0913 86.9797ZM71.9333 65.4H80.2333V87.2666H71.9333V65.4Z" fill="#222222"/>
<g filter="url(#filter0_f_0_444)">
<path d="M27.3293 28L26.8232 52.5V53H81.4817V20H42.0061L49.0915 28.5L44.0305 33.5L34.4146 26L27.3293 28Z" fill="#1DBF73" fill-opacity="0.5"/>
</g>
<path d="M27.3293 28L26.8232 52.5V53H81.4817V20H42.0061L49.0915 28.5L44.0305 33.5L34.4146 26L27.3293 28Z" fill="#1DBF73"/>
<path d="M57.0544 18.9334L49.6338 11.6029C47.3042 9.28797 44.1343 7.99071 40.8306 8.00005H23.439C22.3657 8.00138 21.3073 8.24896 20.3461 8.72142L17.2457 10.2536C16.6243 10.5626 15.934 10.71 15.239 10.6827L13.8333 10.634V8.00005H0V38.0667H13.8333V33.9667H16.1853L17.0222 34.5132C19.364 36.0494 22.0908 36.9169 24.9 37.0184V54.4667H83V18.9334H57.0544ZM11.0667 35.3334H2.76667V10.7334H11.0667V35.3334ZM18.5534 32.239L17.0147 31.2334H13.8333V13.3686L15.1376 13.4147C16.296 13.4554 17.4457 13.2091 18.4825 12.6986L21.5801 11.1665C22.157 10.8815 22.7939 10.7334 23.439 10.7334H40.8306C43.4001 10.726 45.8661 11.735 47.6777 13.5348L53.1422 18.9334H41.727L38.3693 15.6168L36.4138 17.5487L46.1856 27.2034C47.2711 28.2712 47.2745 30.0062 46.1937 31.0792C45.1123 32.1516 43.3562 32.1549 42.2707 31.0872L34.1092 23.024L33.1406 23.8442C30.4664 26.0877 26.5576 26.1451 23.8166 23.9803L23.0148 23.3383L21.2715 25.4618L22.082 26.1111C22.9297 26.7804 23.8814 27.3102 24.9 27.6799V34.2837C22.6359 34.1843 20.4413 33.4776 18.5534 32.239ZM38.2315 30.9598L40.3186 33.0225C42.4855 35.1312 45.9641 35.1345 48.1343 33.0291C46.1039 36.1355 46.905 40.2695 49.9533 42.415C53.0017 44.5604 57.2185 43.9578 59.5266 41.0476C61.8346 38.1368 61.4178 33.9474 58.5796 31.537C55.742 29.1267 51.4866 29.3475 48.9206 32.0382C49.8655 30.5721 50.0344 28.745 49.3738 27.1334H67.8982C68.4932 30.5721 71.2194 33.2654 74.7 33.8533V39.5468C71.2194 40.1347 68.4932 42.828 67.8982 46.2667H40.0018C39.4068 42.828 36.6806 40.1347 33.2 39.5468V33.8533C35.1771 33.5243 36.965 32.4959 38.2315 30.9598ZM49.8 36.7C49.8 34.4358 51.6582 32.6 53.95 32.6C56.2418 32.6 58.1 34.4358 58.1 36.7C58.1 38.9643 56.2418 40.8 53.95 40.8C51.6582 40.8 49.8 38.9643 49.8 36.7ZM80.2333 51.7334H27.6667V28.2525C29.8599 28.4153 32.0463 27.8628 33.8917 26.6809L36.2517 29.0125C35.2135 30.4059 33.5681 31.23 31.8167 31.2334H30.4333V42.1667H31.8167C34.8724 42.1667 37.35 44.6144 37.35 47.6334V49H70.55V47.6334C70.55 44.6144 73.0276 42.1667 76.0833 42.1667H77.4667V31.2334H76.0833C73.0276 31.2334 70.55 28.7857 70.55 25.7667V24.4H47.2603L44.4936 21.6667H80.2333V51.7334Z" fill="#222222"/>
<defs>
<filter id="filter0_f_0_444" x="6.82317" y="0" width="94.6585" height="73" filterUnits="userSpaceOnUse" color-interpolation-filters="sRGB">
<feFlood flood-opacity="0" result="BackgroundImageFix"/>
<feBlend mode="normal" in="SourceGraphic" in2="BackgroundImageFix" result="shape"/>
<feGaussianBlur stdDeviation="10" result="effect1_foregroundBlur_0_444"/>
</filter>
</defs>
</svg>
